<svg xmlns="http://www.w3.org/2000/svg" viewBox="0 0 64 64">
  <rect width="64" height="64" rx="15" fill="#111827"/>
  <path d="M24 14c-6 0-7 5-7 10v2c0 4-3 6-6 6 3 0 6 2 6 6v2c0 5 1 10 7 10" fill="none" stroke="#60A5FA" stroke-width="4.5" stroke-linecap="round"/>
  <path d="M40 14c6 0 7 5 7 10v2c0 4 3 6 6 6-3 0-6 2-6 6v2c0 5-1 10-7 10" fill="none" stroke="#93C5FD" stroke-width="4.5" stroke-linecap="round"/>
  <path d="m24 32 7 7 11-14" fill="none" stroke="#34D399" stroke-width="5.5" stroke-linecap="round" stroke-linejoin="round"/>
</svg>
